<svg width="181" height="36" viewBox="0 0 181 36" fill="none" xmlns="http://www.w3.org/2000/svg">
<path d="M51.848 13.424C50.072 13.424 48.824 14.24 48.152 15.824V13.616H45.224V26H48.248V19.712C48.248 18.584 48.536 17.72 49.16 17.144C49.784 16.568 50.672 16.256 51.824 16.256H52.592V13.472C52.352 13.448 52.112 13.424 51.848 13.424Z" fill="#291B33"/>
<path d="M65.3495 20.024C65.3495 18.032 64.7975 16.424 63.6935 15.176C62.5895 13.952 61.1015 13.328 59.2295 13.328C57.4055 13.328 55.9175 13.928 54.7895 15.104C53.6615 16.304 53.1095 17.864 53.1095 19.808C53.1095 21.776 53.6615 23.336 54.8135 24.512C55.9415 25.712 57.4295 26.288 59.2775 26.288C60.7415 26.288 61.9895 25.928 63.0215 25.184C64.0295 24.44 64.7015 23.432 65.0375 22.16H62.1335C61.6055 23.36 60.6695 23.936 59.3015 23.936C58.3655 23.936 57.6215 23.672 57.0695 23.144C56.5175 22.616 56.1815 21.8 56.0855 20.744H65.3495V20.024ZM59.2055 15.68C60.0695 15.68 60.7655 15.944 61.3175 16.472C61.8455 17 62.1815 17.72 62.3255 18.632H56.1095C56.3975 16.664 57.4295 15.68 59.2055 15.68Z" fill="#291B33"/>
<path d="M74.1661 13.328C72.4141 13.328 71.0941 14.024 70.2061 15.392V13.616H67.3021V30.704H70.3261V24.392C71.1901 25.664 72.4861 26.288 74.1661 26.288C75.8461 26.288 77.2141 25.712 78.2221 24.512C79.2061 23.336 79.7101 21.776 79.7101 19.808C79.7101 17.84 79.2061 16.28 78.2221 15.08C77.2141 13.928 75.8461 13.328 74.1661 13.328ZM71.1181 22.76C70.5421 22.088 70.2541 21.104 70.2541 19.808C70.2541 18.536 70.5181 17.552 71.0941 16.856C71.6461 16.184 72.4381 15.824 73.4461 15.824C74.4541 15.824 75.2461 16.16 75.7981 16.832C76.3501 17.504 76.6381 18.464 76.6381 19.712C76.6381 21.008 76.3501 22.016 75.7981 22.712C75.2221 23.432 74.4301 23.792 73.4461 23.792C72.4381 23.792 71.6461 23.456 71.1181 22.76Z" fill="#291B33"/>
<path d="M89.4063 20.552C89.4063 21.536 89.1183 22.304 88.5903 22.856C88.0623 23.408 87.4143 23.672 86.6463 23.672C85.0863 23.672 84.3183 22.904 84.3183 21.32V13.616H81.2943V21.824C81.2943 23.264 81.6783 24.368 82.4463 25.136C83.2143 25.904 84.2703 26.288 85.6143 26.288C87.2463 26.288 88.5423 25.592 89.5023 24.2V26H92.4303V13.616H89.4063V20.552Z" fill="#291B33"/>
<path d="M101.344 13.616H98.8961V10.016H95.8961V13.616H93.9761V15.92H95.8961V22.928C95.8961 24.032 96.1841 24.848 96.8081 25.352C97.4321 25.856 98.4161 26.096 99.7601 26.096C100.144 26.096 100.672 26.072 101.344 26V23.696H100.312C99.7841 23.696 99.4241 23.624 99.2081 23.456C98.9921 23.312 98.8961 23.024 98.8961 22.616V15.92H101.344V13.616Z" fill="#291B33"/>
<path d="M114.568 20.024C114.568 18.032 114.016 16.424 112.912 15.176C111.808 13.952 110.32 13.328 108.448 13.328C106.624 13.328 105.136 13.928 104.008 15.104C102.88 16.304 102.328 17.864 102.328 19.808C102.328 21.776 102.88 23.336 104.032 24.512C105.16 25.712 106.648 26.288 108.496 26.288C109.96 26.288 111.208 25.928 112.24 25.184C113.248 24.44 113.92 23.432 114.256 22.16H111.352C110.824 23.36 109.888 23.936 108.52 23.936C107.584 23.936 106.84 23.672 106.288 23.144C105.736 22.616 105.4 21.8 105.304 20.744H114.568V20.024ZM108.424 15.68C109.288 15.68 109.984 15.944 110.536 16.472C111.064 17 111.4 17.72 111.544 18.632H105.328C105.616 16.664 106.648 15.68 108.424 15.68Z" fill="#291B33"/>
<path d="M125.353 15.224C124.465 13.976 123.193 13.328 121.537 13.328C119.809 13.328 118.441 13.928 117.481 15.08C116.473 16.256 115.969 17.84 115.969 19.808C115.969 21.776 116.473 23.336 117.481 24.512C118.465 25.712 119.809 26.288 121.537 26.288C123.217 26.288 124.537 25.616 125.449 24.272V26H128.377V8.91201H125.353V15.224ZM119.905 22.808C119.329 22.16 119.065 21.2 119.065 19.904C119.065 18.632 119.329 17.624 119.905 16.904C120.481 16.184 121.249 15.824 122.233 15.824C123.241 15.824 124.009 16.184 124.585 16.856C125.137 17.552 125.425 18.536 125.425 19.808C125.425 21.104 125.137 22.088 124.585 22.76C124.009 23.456 123.217 23.792 122.233 23.792C121.225 23.792 120.457 23.48 119.905 22.808Z" fill="#291B33"/>
<path d="M131.994 13.616H129.954V15.296H131.994V26H133.914V15.296H136.554V13.616H133.914V12.296C133.914 11.144 134.466 10.544 135.57 10.544H136.674V8.91201C136.146 8.88801 135.738 8.86401 135.45 8.86401C133.146 8.86401 131.994 10.04 131.994 12.344V13.616ZM138.402 11.744H140.442V9.39201H138.402V11.744ZM140.394 26V13.616H138.474V26H140.394Z" fill="#291B33"/>
<path d="M149.076 13.424C147.252 13.424 145.908 14.216 145.092 15.8V13.616H143.268V26H145.188V18.944C145.188 17.792 145.524 16.88 146.244 16.256C146.964 15.632 147.948 15.296 149.244 15.296H149.724V13.448C149.604 13.448 149.388 13.424 149.076 13.424Z" fill="#291B33"/>
<path d="M164.55 13.328C162.87 13.328 161.598 14.12 160.734 15.656C160.038 14.12 158.766 13.328 156.918 13.328C155.334 13.328 154.158 14.048 153.342 15.44V13.616H151.518V26H153.438V19.232C153.438 17.912 153.726 16.88 154.35 16.16C154.95 15.44 155.694 15.056 156.606 15.056C158.334 15.056 159.198 15.968 159.198 17.792V26H161.118V19.232C161.118 17.912 161.406 16.88 162.006 16.16C162.606 15.44 163.374 15.056 164.286 15.056C166.014 15.056 166.878 15.968 166.878 17.792V26H168.798V17.6C168.798 16.304 168.414 15.272 167.67 14.504C166.926 13.736 165.894 13.328 164.55 13.328Z" fill="#291B33"/>
<path d="M176.042 26.288C177.578 26.288 178.778 25.976 179.642 25.328C180.506 24.68 180.962 23.768 180.962 22.592C180.962 21.584 180.626 20.816 179.954 20.24C179.282 19.688 178.202 19.256 176.69 18.944L175.586 18.728C174.674 18.536 174.05 18.32 173.666 18.032C173.282 17.768 173.09 17.36 173.09 16.808C173.09 16.232 173.306 15.8 173.762 15.464C174.194 15.152 174.842 14.984 175.682 14.984C176.714 14.984 177.482 15.176 177.986 15.536C178.466 15.92 178.754 16.544 178.802 17.432H180.722C180.626 14.696 178.946 13.328 175.682 13.328C174.29 13.328 173.186 13.664 172.37 14.288C171.554 14.912 171.17 15.776 171.17 16.832C171.17 18.8 172.442 20 175.034 20.48L176.186 20.696C177.242 20.912 177.986 21.152 178.394 21.44C178.802 21.728 179.018 22.16 179.018 22.712C179.018 24.008 178.01 24.632 176.042 24.632C174.938 24.632 174.146 24.44 173.642 24.056C173.138 23.672 172.826 23 172.73 22.064H170.786C170.978 24.896 172.73 26.288 176.042 26.288Z" fill="#291B33"/>
<path d="M0 18C0 8.05887 8.05887 0 18 0V0C27.9411 0 36 8.05887 36 18V36H18C8.05887 36 0 27.9411 0 18V18Z" fill="#E9465D"/>
<path d="M26 17.3286L25.0562 14.1195L19.3937 16.3499L19.5912 10H16.3868L16.6063 16.3044L10.9438 14.1195L10 17.3286L15.904 19.0128L11.9753 23.9972L14.5432 26L18.011 20.7881L21.3909 26L23.9369 23.9972L20.1619 19.0583L26 17.3286Z" fill="white"/>
</svg>
